<?xml version="1.0" encoding="UTF-8" standalone="no"?>
<!DOCTYPE svg PUBLIC "-//W3C//DTD SVG 1.1//EN" "http://www.w3.org/Graphics/SVG/1.1/DTD/svg11.dtd">
<svg width="100%" height="100%" viewBox="0 0 100 100" version="1.1" xmlns="http://www.w3.org/2000/svg" xmlns:xlink="http://www.w3.org/1999/xlink" xml:space="preserve" style="fill-rule:evenodd;clip-rule:evenodd;stroke-linejoin:round;stroke-miterlimit:1.41421;">
    <path d="M49.4,85.2C49.3,85.2 49.1,85.2 49,85.2C48.9,85.2 48.9,85.2 48.8,85.2C47.7,85.3 46.9,86.2 46.9,87.3C46.9,88.5 47.8,89.4 49,89.4C50.2,89.4 51.1,88.5 51.1,87.3C51.1,86.3 50.4,85.4 49.4,85.2Z" style="fill:white;fill-rule:nonzero;"/>
    <path d="M97.4,33.2C96.2,33.2 95.3,34.1 95.3,35.3C95.3,35.5 95.3,35.7 95.4,35.8C95.5,36 95.5,36.2 95.6,36.4C96,37 96.6,37.4 97.4,37.4C98.6,37.4 99.5,36.5 99.5,35.3C99.5,34.1 98.6,33.2 97.4,33.2Z" style="fill:white;fill-rule:nonzero;"/>
    <path d="M67.6,47.4C67.7,47.6 67.8,47.7 67.9,47.9L95.4,36.4C95.3,36.2 95.2,36 95.2,35.8L67.6,47.4Z" style="fill:white;fill-rule:nonzero;"/>
    <path d="M49.7,51.6L49.7,51L46.2,51.3C46.3,51.4 46.3,51.5 46.3,51.7C46.3,51.8 46.3,51.8 46.3,51.9L49.7,51.6Z" style="fill:white;fill-rule:nonzero;"/>
    <path d="M1.7,89.6C1.9,89.7 2,89.9 2,90.1L3.7,89.3C3.6,89.2 3.5,89 3.4,88.8L1.7,89.6Z" style="fill:white;fill-rule:nonzero;"/>
    <path d="M38,51.6L24.2,60.9C24.3,61 24.5,61.2 24.5,61.4L38.3,52.1C38.2,52 38.1,51.8 38,51.6Z" style="fill:white;fill-rule:nonzero;"/>
    <path d="M4.7,87.8C4.9,87.9 5,88 5.1,88.2L22.3,63.6C22.1,63.5 22,63.4 21.8,63.2L4.7,87.8Z" style="fill:white;fill-rule:nonzero;"/>
    <path d="M24,61.1C23.8,60.9 23.4,60.7 23.1,60.7C22.4,60.7 21.7,61.3 21.7,62.1C21.7,62.4 21.8,62.7 22,63C22.1,63.2 22.3,63.3 22.5,63.4C22.7,63.5 22.8,63.5 23,63.5C23.7,63.5 24.4,62.9 24.4,62.1C24.4,61.9 24.4,61.8 24.3,61.6C24.2,61.4 24.1,61.2 24,61.1Z" style="fill:white;fill-rule:nonzero;"/>
    <path d="M4.5,88.1C4.4,88.1 4.4,88.1 4.5,88.1C4.1,88.1 3.8,88.3 3.8,88.6C3.8,88.8 3.9,89 4.1,89.1C4.2,89.2 4.3,89.2 4.4,89.2C4.7,89.3 5,89 5,88.7C5,88.6 5,88.6 5,88.5C4.9,88.3 4.7,88.1 4.5,88.1Z" style="fill:white;fill-rule:nonzero;"/>
    <path d="M1.4,89.7C1.3,89.6 1.2,89.6 1.1,89.6C0.8,89.6 0.5,89.9 0.5,90.2C0.5,90.5 0.8,90.8 1.1,90.8C1.4,90.8 1.7,90.6 1.7,90.2C1.7,90 1.6,89.9 1.4,89.7Z" style="fill:white;fill-rule:nonzero;"/>
    <path d="M39.7,51.1C39.7,51.2 39.7,51.3 39.7,51.4C39.7,51.5 39.7,51.6 39.6,51.7L44.4,51.9C44.4,51.8 44.4,51.7 44.4,51.6C44.4,51.5 44.4,51.4 44.5,51.3L39.7,51.1Z" style="fill:white;fill-rule:nonzero;"/>
    <path d="M45.4,51C45.2,51 45,51.1 44.9,51.3C44.8,51.4 44.8,51.5 44.8,51.6C44.8,51.7 44.8,51.8 44.9,51.9C45,52.1 45.2,52.2 45.4,52.2C45.6,52.2 45.9,52.1 45.9,51.8C45.9,51.7 46,51.6 46,51.6C46,51.5 46,51.3 45.9,51.2C45.7,51.1 45.6,51 45.4,51Z" style="fill:white;fill-rule:nonzero;"/>
    <path d="M64.6,48.3L52.9,50.5C53,50.7 53,50.9 53,51.1L64.7,48.9C64.6,48.8 64.6,48.6 64.6,48.3C64.6,48.4 64.6,48.4 64.6,48.3Z" style="fill:white;fill-rule:nonzero;"/>
    <path d="M67.3,47.5C67.1,47.2 66.7,47 66.2,47C65.5,47 64.9,47.6 64.9,48.3L64.9,48.4C64.9,48.6 64.9,48.7 65,48.9C65.2,49.4 65.7,49.8 66.3,49.8C67,49.8 67.7,49.2 67.7,48.4C67.7,48.3 67.7,48.2 67.7,48.1C67.5,47.9 67.4,47.7 67.3,47.5Z" style="fill:white;fill-rule:nonzero;"/>
    <path d="M50.9,52.8L48.8,84.9L49.4,84.9L51.5,52.8C51.4,52.8 51.4,52.8 51.3,52.8C51.2,52.9 51.1,52.9 50.9,52.8Z" style="fill:white;fill-rule:nonzero;"/>
    <path d="M52.5,50.6C52.3,50.2 51.8,49.9 51.3,49.9C50.7,49.9 50.1,50.4 50,51L50,51.6C50.1,52.1 50.5,52.4 50.9,52.6C51,52.6 51.2,52.7 51.3,52.7C51.4,52.7 51.4,52.7 51.5,52.7C52.1,52.6 52.6,52 52.6,51.4C52.7,51 52.6,50.8 52.5,50.6Z" style="fill:white;fill-rule:nonzero;"/>
    <path d="M45.8,44L47.3,42.5C47.1,42.4 47,42.2 46.9,42.1L45.4,43.6C45.6,43.7 45.7,43.9 45.8,44Z" style="fill:white;fill-rule:nonzero;"/>
    <path d="M88.8,12.9C88.7,12.8 88.5,12.6 88.5,12.4L50.6,39C50.7,39.1 50.9,39.3 50.9,39.5L88.8,12.9Z" style="fill:white;fill-rule:nonzero;"/>
    <path d="M89.1,12.7C89.5,13.1 90,13.4 90.6,13.4C91.8,13.4 92.7,12.5 92.7,11.3C92.7,10.1 91.8,9.2 90.6,9.2C89.4,9.2 88.5,10.1 88.5,11.3C88.5,11.6 88.6,12 88.7,12.3C88.8,12.4 88.9,12.6 89.1,12.7Z" style="fill:white;fill-rule:nonzero;"/>
    <path d="M47.6,42.3C48,42.6 48.4,42.7 48.9,42.7C50.1,42.7 51,41.8 51,40.6C51,40.3 50.9,39.9 50.8,39.7C50.7,39.5 50.6,39.4 50.5,39.2C50.1,38.8 49.6,38.5 49,38.5C47.8,38.5 46.9,39.4 46.9,40.6C46.9,41.1 47.1,41.5 47.3,41.8C47.3,42 47.4,42.2 47.6,42.3Z" style="fill:white;fill-rule:nonzero;"/>
    <path d="M42.1,47.1L39.2,50.5C39.4,50.6 39.6,50.7 39.7,50.9L42.7,47.4C42.4,47.4 42.3,47.2 42.1,47.1Z" style="fill:white;fill-rule:nonzero;"/>
    <path d="M45.2,43.8C44.8,43.5 44.4,43.3 43.8,43.3C42.6,43.3 41.7,44.2 41.7,45.4C41.7,46 41.9,46.5 42.3,46.9C42.4,47 42.6,47.2 42.8,47.3C43.1,47.5 43.5,47.6 43.8,47.6C45,47.6 45.9,46.7 45.9,45.5C45.9,45.1 45.8,44.7 45.5,44.3C45.5,44.1 45.4,43.9 45.2,43.8Z" style="fill:white;fill-rule:nonzero;"/>
    <path d="M39.4,51.1C39.3,50.9 39.2,50.8 39,50.8L38.9,50.8C38.6,50.8 38.3,51.1 38.3,51.4C38.3,51.6 38.4,51.8 38.6,51.9C38.7,51.9 38.8,52 38.9,52C39.1,52 39.3,51.9 39.4,51.7C39.5,51.6 39.5,51.5 39.5,51.4C39.5,51.3 39.5,51.2 39.4,51.1L39.4,51.1Z" style="fill:white;fill-rule:nonzero;"/>
</svg>
